<?xml version="1.0" encoding="UTF-8"?>
<svg xmlns="http://www.w3.org/2000/svg" xmlns:xlink="http://www.w3.org/1999/xlink" width="651px" height="433px" viewBox="0 0 651 433" version="1.1">
<defs>
<filter id="alpha" filterUnits="objectBoundingBox" x="0%" y="0%" width="100%" height="100%">
  <feColorMatrix type="matrix" in="SourceGraphic" values="0 0 0 0 1 0 0 0 0 1 0 0 0 0 1 0 0 0 1 0"/>
</filter>
<mask id="mask0">
  <g filter="url(#alpha)">
<rect x="0" y="0" width="651" height="433" style="fill:rgb(0%,0%,0%);fill-opacity:0.2;stroke:none;"/>
  </g>
</mask>
<clipPath id="clip1">
  <rect x="0" y="0" width="651" height="433"/>
</clipPath>
<g id="surface5" clip-path="url(#clip1)">
<path style=" stroke:none;fill-rule:nonzero;fill:rgb(0%,0%,0%);fill-opacity:1;" d="M 59.871094 339.3125 L 76.933594 432.21875 L 87.171875 433.109375 Z M 59.871094 339.3125 "/>
</g>
<mask id="mask1">
  <g filter="url(#alpha)">
<rect x="0" y="0" width="651" height="433" style="fill:rgb(0%,0%,0%);fill-opacity:0.2;stroke:none;"/>
  </g>
</mask>
<clipPath id="clip2">
  <rect x="0" y="0" width="651" height="433"/>
</clipPath>
<g id="surface8" clip-path="url(#clip2)">
<path style=" stroke:none;fill-rule:nonzero;fill:rgb(0%,0%,0%);fill-opacity:1;" d="M 247.808594 332.304688 L 230.746094 432.152344 L 220.511719 433.109375 Z M 247.808594 332.304688 "/>
</g>
</defs>
<g id="surface1">
<path style=" stroke:none;fill-rule:nonzero;fill:rgb(94.117647%,94.117647%,94.117647%);fill-opacity:1;" d="M 233.570312 249.257812 C 255.886719 209.96875 298.453125 179.804688 343.515625 182.710938 C 310.277344 218.886719 290.894531 265.664062 288.796875 314.761719 C 288.058594 333.703125 289.207031 354.84375 276.640625 369.027344 C 268.824219 377.851562 256.875 382.125 245.125 383.019531 C 233.375 383.917969 221.628906 381.792969 210.035156 379.675781 L 207.222656 380.542969 C 206.152344 335.359375 211.257812 288.546875 233.570312 249.257812 Z M 233.570312 249.257812 "/>
<path style=" stroke:none;fill-rule:nonzero;fill:rgb(100%,100%,100%);fill-opacity:1;" d="M 343.582031 183.65625 C 310.261719 199.710938 281.847656 226.523438 264.40625 259.222656 C 260.632812 266.292969 257.425781 273.792969 256.023438 281.726562 C 254.621094 289.660156 255.601562 297.210938 258.308594 304.746094 C 260.785156 311.636719 264.113281 318.394531 264.871094 325.765625 C 265.671875 333.535156 262.816406 340.800781 257.675781 346.566406 C 251.382812 353.621094 242.933594 357.992188 234.523438 361.980469 C 225.1875 366.40625 215.417969 370.855469 208.804688 379.121094 C 208.003906 380.121094 206.496094 378.816406 207.296875 377.816406 C 218.804688 363.441406 238.5 360.738281 252.160156 349.160156 C 258.535156 343.753906 263.320312 336.394531 263.015625 327.773438 C 262.753906 320.234375 259.324219 313.261719 256.757812 306.304688 C 254.0625 299.003906 252.71875 291.664062 253.6875 283.878906 C 254.675781 275.917969 257.597656 268.277344 261.171875 261.140625 C 269.234375 245.046875 280.261719 230.273438 292.898438 217.503906 C 307.421875 202.824219 324.34375 190.738281 342.9375 181.769531 C 344.089844 181.214844 344.726562 183.105469 343.582031 183.65625 Z M 343.582031 183.65625 "/>
<path style=" stroke:none;fill-rule:nonzero;fill:rgb(100%,100%,100%);fill-opacity:1;" d="M 269.515625 248.296875 C 258.964844 240.574219 255.554688 226.339844 261.464844 214.671875 C 262.046875 213.53125 263.84375 214.382812 263.261719 215.527344 C 257.738281 226.386719 260.945312 239.652344 270.816406 246.789062 C 271.851562 247.539062 270.546875 249.042969 269.515625 248.296875 Z M 269.515625 248.296875 "/>
<path style=" stroke:none;fill-rule:nonzero;fill:rgb(100%,100%,100%);fill-opacity:1;" d="M 256.59375 301.417969 C 269.394531 299.546875 281.019531 292.914062 289.152344 282.84375 C 289.957031 281.847656 291.460938 283.148438 290.65625 284.148438 C 282.175781 294.609375 270.0625 301.488281 256.738281 303.40625 C 255.46875 303.585938 255.332031 301.601562 256.59375 301.417969 Z M 256.59375 301.417969 "/>
<path style=" stroke:none;fill-rule:nonzero;fill:rgb(100%,100%,100%);fill-opacity:1;" d="M 308.402344 205.273438 C 311.808594 209.050781 316.878906 210.859375 321.902344 210.089844 C 323.167969 209.894531 323.304688 211.878906 322.046875 212.078125 C 316.496094 212.902344 310.898438 210.917969 307.101562 206.78125 C 306.703125 206.414062 306.660156 205.800781 307 205.378906 C 307.359375 204.964844 307.988281 204.917969 308.402344 205.273438 Z M 308.402344 205.273438 "/>
<path style=" stroke:none;fill-rule:nonzero;fill:rgb(94.117647%,94.117647%,94.117647%);fill-opacity:1;" d="M 433.171875 306.652344 C 432.382812 306.796875 431.597656 306.945312 430.800781 307.105469 C 420.222656 309.125 409.820312 312 399.707031 315.707031 C 398.921875 315.980469 398.128906 316.269531 397.351562 316.566406 C 373.074219 325.753906 350.714844 339.375 331.410156 356.730469 C 323.730469 363.644531 316.59375 371.132812 310.050781 379.132812 C 301.015625 390.175781 292.101562 402.875 280.296875 410.074219 C 279.074219 410.839844 277.804688 411.53125 276.496094 412.136719 L 208.496094 383.90625 C 208.375 383.765625 208.242188 383.640625 208.121094 383.496094 L 205.355469 382.496094 C 205.664062 382.058594 205.992188 381.613281 206.300781 381.175781 C 206.476562 380.921875 206.671875 380.675781 206.847656 380.421875 C 206.972656 380.253906 207.097656 380.085938 207.199219 379.929688 C 207.238281 379.875 207.28125 379.820312 207.316406 379.777344 C 207.417969 379.621094 207.527344 379.484375 207.625 379.34375 C 209.457031 376.847656 211.3125 374.359375 213.191406 371.878906 C 213.195312 371.863281 213.195312 371.863281 213.21875 371.855469 C 227.558594 353.003906 243.601562 335.183594 261.832031 320.367188 C 262.382812 319.921875 262.933594 319.460938 263.515625 319.027344 C 271.769531 312.394531 280.554688 306.449219 289.777344 301.246094 C 294.835938 298.414062 300.035156 295.84375 305.355469 293.535156 C 319.113281 287.605469 333.714844 283.878906 348.628906 282.492188 C 378.359375 279.726562 408.640625 286.511719 431.445312 305.207031 C 432.027344 305.683594 432.597656 306.15625 433.171875 306.652344 Z M 433.171875 306.652344 "/>
<path style=" stroke:none;fill-rule:nonzero;fill:rgb(100%,100%,100%);fill-opacity:1;" d="M 432.660156 307.453125 C 396.398438 300.191406 357.582031 304.480469 323.984375 320.078125 C 316.71875 323.453125 309.644531 327.503906 303.757812 332.992188 C 297.863281 338.484375 294.101562 345.101562 291.730469 352.75 C 289.566406 359.742188 288.15625 367.144531 284.328125 373.488281 C 280.292969 380.175781 273.640625 384.253906 266.070312 385.757812 C 256.800781 387.601562 247.425781 386 238.3125 384.117188 C 228.195312 382.023438 217.71875 379.691406 207.464844 382.304688 C 206.222656 382.621094 205.804688 380.671875 207.046875 380.355469 C 224.882812 375.8125 242.234375 385.523438 260.105469 384.507812 C 268.445312 384.035156 276.691406 381.039062 281.640625 373.972656 C 285.964844 367.792969 287.421875 360.160156 289.554688 353.0625 C 291.796875 345.609375 295.140625 338.9375 300.59375 333.304688 C 306.175781 327.542969 313.105469 323.203125 320.25 319.660156 C 336.367188 311.667969 354.0625 306.519531 371.832031 303.9375 C 392.257812 300.964844 413.039062 301.515625 433.28125 305.558594 C 434.535156 305.808594 433.90625 307.699219 432.660156 307.453125 Z M 432.660156 307.453125 "/>
<path style=" stroke:none;fill-rule:nonzero;fill:rgb(100%,100%,100%);fill-opacity:1;" d="M 334.636719 314.429688 C 330.859375 301.910156 336.699219 288.488281 348.4375 282.734375 C 349.589844 282.171875 350.511719 283.9375 349.359375 284.5 C 338.414062 289.839844 332.992188 302.367188 336.582031 314.011719 C 336.960938 315.234375 335.011719 315.648438 334.636719 314.429688 Z M 334.636719 314.429688 "/>
<path style=" stroke:none;fill-rule:nonzero;fill:rgb(100%,100%,100%);fill-opacity:1;" d="M 292.363281 349.0625 C 303.710938 355.28125 316.984375 356.988281 329.53125 353.851562 C 330.777344 353.539062 331.195312 355.484375 329.953125 355.796875 C 316.886719 359.039062 303.078125 357.234375 291.285156 350.734375 C 290.164062 350.113281 291.246094 348.445312 292.363281 349.0625 Z M 292.363281 349.0625 "/>
<path style=" stroke:none;fill-rule:nonzero;fill:rgb(100%,100%,100%);fill-opacity:1;" d="M 391.566406 303.515625 C 392.015625 308.582031 394.976562 313.082031 399.449219 315.492188 C 400.578125 316.097656 399.492188 317.769531 398.371094 317.167969 C 393.441406 314.480469 390.167969 309.523438 389.621094 303.933594 C 389.523438 303.402344 389.859375 302.882812 390.386719 302.75 C 390.921875 302.640625 391.449219 302.980469 391.566406 303.515625 Z M 391.566406 303.515625 "/>
<path style=" stroke:none;fill-rule:nonzero;fill:rgb(24.705882%,23.921569%,33.725491%);fill-opacity:1;" d="M 303.636719 353.226562 C 294.113281 307.136719 282.207031 291.773438 282.207031 291.773438 L 277.660156 288.242188 L 272.191406 283.992188 L 272.21875 283.445312 L 270.921875 283.003906 L 270.617188 282.765625 L 270.117188 282.382812 L 270.035156 282.46875 L 269.867188 282.644531 L 245.117188 274.226562 L 213.722656 263.550781 L 199.183594 244.636719 C 194.382812 238.394531 186.9375 234.761719 179.066406 234.816406 L 132.632812 235.160156 C 126.355469 235.207031 120.324219 237.605469 115.71875 241.878906 L 85.199219 270.210938 L 37.644531 292.941406 L 37.566406 292.859375 L 37.066406 293.21875 L 29.71875 296.734375 L 30.023438 298.3125 L 25.472656 301.597656 C 25.472656 301.597656 13.570312 315.894531 4.046875 358.777344 C 1.625 369.6875 0.433594 393.09375 0 421.9375 C -0.0429688 424.886719 1.097656 427.726562 3.164062 429.828125 C 5.230469 431.925781 8.050781 433.109375 10.996094 433.109375 L 296.695312 433.109375 C 299.640625 433.109375 302.460938 431.929688 304.527344 429.832031 C 306.59375 427.734375 307.730469 424.894531 307.691406 421.949219 C 307.273438 390.5625 306.078125 365.058594 303.636719 353.226562 Z M 303.636719 353.226562 "/>
<path style=" stroke:none;fill-rule:nonzero;fill:rgb(89.803922%,89.803922%,89.803922%);fill-opacity:1;" d="M 336.222656 40.191406 C 315.644531 40.191406 298.964844 56.886719 298.964844 77.484375 C 298.964844 98.078125 315.644531 114.773438 336.222656 114.773438 L 613.902344 114.773438 C 634.480469 114.773438 651.160156 98.078125 651.160156 77.484375 C 651.160156 56.886719 634.480469 40.191406 613.902344 40.191406 Z M 336.222656 40.191406 "/>
<path style=" stroke:none;fill-rule:nonzero;fill:rgb(100%,100%,100%);fill-opacity:1;" d="M 336.222656 47.738281 C 319.8125 47.738281 306.503906 61.054688 306.503906 77.484375 C 306.503906 93.910156 319.8125 107.226562 336.222656 107.226562 L 613.902344 107.226562 C 630.316406 107.226562 643.621094 93.910156 643.621094 77.484375 C 643.621094 61.054688 630.316406 47.738281 613.902344 47.738281 Z M 336.222656 47.738281 "/>
<path style=" stroke:none;fill-rule:nonzero;fill:rgb(61.960787%,38.039216%,41.568628%);fill-opacity:1;" d="M 223.972656 156.476562 C 223.972656 122.851562 196.738281 95.59375 163.140625 95.59375 C 129.546875 95.59375 102.3125 122.851562 102.3125 156.476562 C 102.3125 190.101562 129.546875 217.359375 163.140625 217.359375 C 196.738281 217.359375 223.972656 190.101562 223.972656 156.476562 Z M 223.972656 156.476562 "/>
<path style=" stroke:none;fill-rule:nonzero;fill:rgb(18.431373%,18.039216%,25.490198%);fill-opacity:1;" d="M 147.582031 214.378906 C 147.320312 213.804688 147.0625 213.230469 146.804688 212.65625 C 146.902344 212.65625 147 212.671875 147.101562 212.675781 Z M 147.582031 214.378906 "/>
<path style=" stroke:none;fill-rule:nonzero;fill:rgb(18.431373%,18.039216%,25.490198%);fill-opacity:1;" d="M 100.621094 98.363281 C 103.695312 95.90625 107.292969 93.648438 111.226562 93.773438 C 115.160156 93.902344 119.148438 97.457031 118.332031 101.308594 C 133.246094 74.882812 164.964844 62.980469 193.5625 73.078125 C 203.339844 76.53125 212.925781 83.4375 215.171875 93.566406 C 215.746094 96.167969 215.871094 99.015625 217.492188 101.128906 C 219.539062 103.792969 223.453125 104.394531 226.675781 103.457031 C 226.707031 103.449219 226.738281 103.4375 226.769531 103.429688 C 227.886719 103.046875 229.117188 103.386719 229.882812 104.28125 C 230.648438 105.175781 230.792969 106.445312 230.246094 107.488281 L 227.476562 112.652344 C 230.964844 113.429688 234.589844 113.355469 238.039062 112.429688 C 239.214844 112.121094 240.457031 112.585938 241.140625 113.589844 C 241.824219 114.59375 241.804688 115.917969 241.089844 116.902344 C 231.96875 129.433594 216.726562 137.527344 201.175781 137.433594 C 190.125 137.367188 178.957031 133.554688 168.203125 136.097656 C 159.773438 138.089844 152.699219 143.792969 148.957031 151.609375 C 145.214844 159.425781 145.207031 168.519531 148.9375 176.339844 C 145.632812 172.722656 139.242188 173.582031 135.863281 177.128906 C 132.484375 180.675781 131.609375 185.96875 131.949219 190.859375 C 132.46875 198.335938 135.398438 205.382812 138.484375 212.242188 C 112.605469 211.425781 88.132812 193.257812 79.894531 168.6875 C 71.621094 144.011719 80.292969 114.59375 100.621094 98.363281 Z M 100.621094 98.363281 "/>
<use xlink:href="#surface5" mask="url(#mask0)"/>
<use xlink:href="#surface8" mask="url(#mask1)"/>
<path style=" stroke:none;fill-rule:nonzero;fill:rgb(42.352942%,38.82353%,100%);fill-opacity:1;" d="M 115.171875 67.097656 C 111.902344 68.464844 108.488281 66.964844 107.054688 63.535156 C 105.601562 60.050781 106.960938 56.511719 110.285156 55.125 C 113.609375 53.734375 116.960938 55.238281 118.4375 58.777344 C 119.890625 62.265625 118.550781 65.683594 115.171875 67.097656 Z M 108.90625 48.265625 L 106.304688 49.355469 C 104.957031 49.910156 103.410156 49.34375 102.742188 48.046875 L 102.613281 47.792969 C 99.8125 42.742188 99.492188 36.601562 101.664062 29.554688 C 103.675781 23.234375 104.511719 18.789062 102.832031 14.757812 C 100.890625 10.101562 96.738281 8.644531 91.449219 10.757812 C 89.398438 11.613281 88.742188 11.601562 87.128906 13.203125 C 86.417969 13.917969 85.449219 14.3125 84.445312 14.296875 C 83.472656 14.285156 82.546875 13.878906 81.878906 13.171875 C 80.558594 11.769531 80.550781 9.585938 81.855469 8.171875 C 84.570312 5.328125 87.84375 3.078125 91.46875 1.5625 C 102.835938 -3.1875 108.558594 3.828125 111.179688 10.101562 C 113.738281 16.242188 112.300781 21.9375 109.984375 29.316406 C 108.042969 35.445312 108.15625 39.988281 110.359375 44.503906 C 110.683594 45.195312 110.710938 45.988281 110.433594 46.695312 C 110.160156 47.40625 109.609375 47.972656 108.90625 48.265625 Z M 108.90625 48.265625 "/>
<path style=" stroke:none;fill-rule:nonzero;fill:rgb(42.352942%,38.82353%,100%);fill-opacity:1;" d="M 397.558594 95.269531 L 342.3125 95.269531 C 341.835938 95.273438 341.390625 95.019531 341.152344 94.605469 C 340.914062 94.191406 340.914062 93.683594 341.152344 93.269531 C 341.390625 92.855469 341.835938 92.601562 342.3125 92.605469 L 397.558594 92.605469 C 398.289062 92.609375 398.882812 93.203125 398.882812 93.9375 C 398.882812 94.667969 398.289062 95.265625 397.558594 95.269531 Z M 397.558594 95.269531 "/>
<path style=" stroke:none;fill-rule:nonzero;fill:rgb(42.352942%,38.82353%,100%);fill-opacity:1;" d="M 467.644531 95.710938 L 412.398438 95.710938 C 411.917969 95.714844 411.476562 95.460938 411.238281 95.050781 C 410.996094 94.636719 410.996094 94.125 411.238281 93.710938 C 411.476562 93.296875 411.917969 93.046875 412.398438 93.050781 L 467.644531 93.050781 C 468.121094 93.046875 468.5625 93.296875 468.804688 93.710938 C 469.042969 94.125 469.042969 94.636719 468.804688 95.050781 C 468.5625 95.460938 468.121094 95.714844 467.644531 95.710938 Z M 467.644531 95.710938 "/>
<path style=" stroke:none;fill-rule:nonzero;fill:rgb(42.352942%,38.82353%,100%);fill-opacity:1;" d="M 537.730469 96.15625 L 482.480469 96.15625 C 481.75 96.152344 481.160156 95.558594 481.160156 94.824219 C 481.160156 94.09375 481.75 93.496094 482.480469 93.492188 L 537.730469 93.492188 C 538.207031 93.488281 538.648438 93.742188 538.886719 94.15625 C 539.128906 94.570312 539.128906 95.078125 538.886719 95.492188 C 538.648438 95.90625 538.207031 96.160156 537.730469 96.15625 Z M 537.730469 96.15625 "/>
<path style=" stroke:none;fill-rule:nonzero;fill:rgb(42.352942%,38.82353%,100%);fill-opacity:1;" d="M 607.8125 96.601562 L 552.566406 96.601562 C 551.835938 96.59375 551.242188 96 551.242188 95.269531 C 551.242188 94.535156 551.835938 93.941406 552.566406 93.9375 L 607.8125 93.9375 C 608.542969 93.941406 609.136719 94.535156 609.136719 95.269531 C 609.136719 96 608.542969 96.59375 607.8125 96.601562 Z M 607.8125 96.601562 "/>
<path style=" stroke:none;fill-rule:nonzero;fill:rgb(42.352942%,38.82353%,100%);fill-opacity:1;" d="M 380.082031 72.734375 C 380.082031 67.058594 375.484375 62.457031 369.8125 62.457031 C 364.144531 62.457031 359.546875 67.058594 359.546875 72.734375 C 359.546875 78.410156 364.144531 83.011719 369.8125 83.011719 C 375.484375 83.011719 380.082031 78.410156 380.082031 72.734375 Z M 380.082031 72.734375 "/>
<path style=" stroke:none;fill-rule:nonzero;fill:rgb(42.352942%,38.82353%,100%);fill-opacity:1;" d="M 450.589844 72.734375 C 450.589844 67.058594 445.992188 62.457031 440.320312 62.457031 C 434.652344 62.457031 430.054688 67.058594 430.054688 72.734375 C 430.054688 78.410156 434.652344 83.011719 440.320312 83.011719 C 445.992188 83.011719 450.589844 78.410156 450.589844 72.734375 Z M 450.589844 72.734375 "/>
<path style=" stroke:none;fill-rule:nonzero;fill:rgb(42.352942%,38.82353%,100%);fill-opacity:1;" d="M 521.097656 72.734375 C 521.097656 67.058594 516.5 62.457031 510.828125 62.457031 C 505.160156 62.457031 500.5625 67.058594 500.5625 72.734375 C 500.5625 78.410156 505.160156 83.011719 510.828125 83.011719 C 516.5 83.011719 521.097656 78.410156 521.097656 72.734375 Z M 521.097656 72.734375 "/>
<path style=" stroke:none;fill-rule:nonzero;fill:rgb(42.352942%,38.82353%,100%);fill-opacity:1;" d="M 591.605469 72.734375 C 591.605469 67.058594 587.007812 62.457031 581.335938 62.457031 C 575.667969 62.457031 571.070312 67.058594 571.070312 72.734375 C 571.070312 78.410156 575.667969 83.011719 581.335938 83.011719 C 587.007812 83.011719 591.605469 78.410156 591.605469 72.734375 Z M 591.605469 72.734375 "/>
</g>
</svg>
